<mxfile host="app.diagrams.net" modified="2024-07-02T05:49:16.631Z" agent="Mozilla/5.0 (Windows NT 10.0; Win64; x64) AppleWebKit/537.36 (KHTML, like Gecko) Chrome/126.0.0.0 Safari/537.36" version="24.4.13" etag="uliS--1jNJg434w9kIeC" type="github">
  <diagram name="Page-1" id="-2r9m0miOez7xZ57Z4ua">
    <mxGraphModel>
      <root>
        <mxCell id="0" />
        <mxCell id="1" parent="0" />
      </root>
    </mxGraphModel>
  </diagram>
</mxfile>
